<?xml version="1.0" encoding="UTF-8"?> <svg xmlns="http://www.w3.org/2000/svg" id="Capa_2" viewBox="0 0 718.3 197.17"><defs><style>.cls-1{fill:#fff;}.cls-2{fill:#f63;}</style></defs><g id="Capa_1-2"><g><polygon class="cls-1" points="32.89 33.19 32.89 61.08 88.64 61.08 88.64 92.87 32.89 92.87 32.89 154.7 0 154.7 0 .67 88.64 .67 88.64 33.19 32.89 33.19"></polygon><rect class="cls-1" x="105.92" y="48.61" width="31.29" height="106.09"></rect><circle class="cls-1" cx="120.69" cy="21.43" r="19.87"></circle><path class="cls-1" d="M232.95,0V55.45c-8.14-5.99-17.97-9.51-28.56-9.51-28.2,0-51.04,24.87-51.04,55.54s22.84,55.54,51.04,55.54c.48,0,.95-.01,1.43-.03,10.04-.29,19.35-3.74,27.13-9.47v7.49h33.72V0h-33.72Zm.78,104.23c-.68,6.75-4,12.71-8.91,16.84-4.4,3.73-10.1,5.96-16.32,5.96-14.01,0-25.37-11.36-25.37-25.37s11.36-25.37,25.37-25.37,25.36,11.36,25.36,25.37c0,.86-.05,1.72-.13,2.56h0Z"></path><path class="cls-1" d="M391.6,114.55c1.02-4.22,1.57-8.62,1.57-13.17,0-31.15-25.26-56.41-56.41-56.41-5.87,0-11.53,.89-16.85,2.56-22.92,7.16-39.57,28.56-39.57,53.84,0,31.16,25.26,56.41,56.42,56.41,14.36,0,27.45-5.36,37.41-14.2,2.92-2.59,5.56-5.47,7.89-8.6l-20.04-12.9-1.81-1.17c-32.93,21.23-46.12-7.6-46.12-7.6l43.37,.69,34.15,.54Zm-78.76-22.59c0-10.86,8.68-19.86,20.03-21.46,1.19-.17,2.41-.26,3.65-.26,13.09,0,23.69,9.72,23.69,21.72h-47.37Z"></path><rect class="cls-1" x="408.26" width="32.51" height="154.34"></rect><rect class="cls-2" x="460.82" width="32.51" height="107.56"></rect><circle class="cls-2" cx="477.11" cy="134.48" r="18.08"></circle><polygon class="cls-1" points="514.91 132.7 553 78.69 516.72 78.69 516.72 47.7 596.94 47.7 597.03 70.08 556.51 124.27 598.76 124.27 598.76 154.35 515.01 154.35 514.91 132.7"></polygon><polygon class="cls-1" points="588.43 47.7 588.43 48.15 587.81 47.7 588.43 47.7"></polygon><path class="cls-1" d="M687.71,48.15v6.33c-8.26-5.99-18.2-9.49-28.89-9.49-28.73,0-52.02,25.26-52.02,56.41,0,8.04,1.54,15.68,4.35,22.6,8.03,19.9,26.36,33.81,47.68,33.81,10.7,0,20.64-3.5,28.89-9.51v6.05h29.82V48.15h-29.82Zm-26.04,79.28c-7.84,0-14.86-3.45-19.62-8.92-4-4.58-6.43-10.57-6.43-17.12,0-14.38,11.66-26.05,26.05-26.05s26.05,11.67,26.05,26.05c0,3.29-.61,6.44-1.73,9.33-3.75,9.78-13.23,16.71-24.32,16.71Z"></path><path class="cls-1" d="M15.15,194.55c-1.18,.47-2.49,.7-3.93,.7-2.86,0-5.07-.94-6.63-2.79-1.56-1.86-2.33-4.5-2.33-7.89s.78-5.99,2.36-7.86c1.57-1.86,3.77-2.79,6.61-2.79,1.44,0,2.76,.23,3.93,.7,1.17,.47,2.35,1.24,3.5,2.31l.92-1.72c-1.05-1.08-2.29-1.88-3.71-2.41-1.42-.53-2.97-.8-4.68-.8-2.28,0-4.26,.5-5.94,1.5-1.67,1.01-2.96,2.46-3.88,4.35-.9,1.9-1.36,4.14-1.36,6.73s.46,4.83,1.36,6.71c.92,1.9,2.21,3.35,3.88,4.37,1.68,1.01,3.66,1.52,5.94,1.52,1.7,0,3.26-.27,4.68-.8,1.42-.54,2.65-1.34,3.71-2.41l-.92-1.72c-1.16,1.08-2.33,1.84-3.5,2.31Z"></path><path class="cls-1" d="M78.39,176.97c-1.01-1.89-2.46-3.34-4.36-4.35-1.89-1.02-4.13-1.52-6.71-1.52s-4.82,.5-6.69,1.52c-1.89,1.01-3.33,2.46-4.35,4.36-1.01,1.9-1.52,4.14-1.52,6.73s.51,4.78,1.52,6.68c1.02,1.9,2.47,3.35,4.36,4.37,1.9,1.01,4.12,1.51,6.68,1.51s4.83-.5,6.71-1.51c1.9-1.02,3.35-2.47,4.36-4.37,1.02-1.9,1.52-4.13,1.52-6.71s-.5-4.83-1.52-6.7Zm-3.67,14.58c-1.76,1.86-4.23,2.8-7.4,2.8s-5.63-.94-7.38-2.81c-1.75-1.88-2.62-4.5-2.62-7.87s.87-5.99,2.62-7.86c1.75-1.86,4.21-2.79,7.38-2.79s5.67,.93,7.41,2.77c1.75,1.85,2.62,4.48,2.62,7.88s-.87,6.03-2.63,7.88Z"></path><path class="cls-1" d="M557.39,176.97c-1.02-1.89-2.47-3.34-4.36-4.35-1.9-1.02-4.13-1.52-6.73-1.52s-4.82,.5-6.69,1.52c-1.88,1.01-3.33,2.46-4.34,4.36-1.02,1.9-1.52,4.14-1.52,6.73s.5,4.78,1.52,6.68c1.01,1.9,2.46,3.35,4.36,4.37,1.89,1.01,4.12,1.51,6.67,1.51s4.83-.5,6.73-1.51c1.89-1.02,3.34-2.47,4.36-4.37,1.01-1.9,1.52-4.13,1.52-6.71s-.51-4.83-1.52-6.7Zm-3.68,14.58c-1.76,1.86-4.22,2.8-7.4,2.8s-5.63-.94-7.37-2.81c-1.75-1.88-2.62-4.5-2.62-7.87s.87-5.99,2.62-7.86c1.74-1.86,4.2-2.79,7.37-2.79s5.67,.93,7.42,2.77c1.75,1.85,2.62,4.48,2.62,7.88s-.88,6.03-2.64,7.88Z"></path><path class="cls-1" d="M138.06,171.37l-9.61,18.65-9.73-18.65h-1.82v24.62h2.06l-.03-20.18,8.69,16.3h1.6l8.63-16.44v20.32h2.02v-24.62h-1.81Z"></path><path class="cls-1" d="M193.86,172.13v15.36c0,2.52-.62,4.42-1.86,5.7-1.25,1.28-3.09,1.92-5.54,1.92-.27,0-.53-.01-.78-.03h-.01c-4.4-.25-6.61-2.78-6.61-7.58v-15.36h-2.16v15.12c0,3.21,.8,5.64,2.42,7.3,1.3,1.33,3.09,2.12,5.38,2.37h.01c.55,.07,1.13,.1,1.75,.1,3.12,0,5.49-.82,7.1-2.47,1.62-1.66,2.43-4.08,2.43-7.3v-15.12h-2.13Z"></path><path class="cls-1" d="M251.92,171.37v20.96l-15.58-20.96h-1.7v24.62h2.02v-20.98l15.6,20.98h1.68v-24.62h-2.02Z"></path><path class="cls-1" d="M293.82,171.37v24.62h2.17v-24.62h-2.17Z"></path><path class="cls-1" d="M348.47,193.66c-1.18,.46-2.49,.7-3.93,.7-2.86,0-5.07-.94-6.63-2.8-1.56-1.85-2.33-4.48-2.33-7.88s.78-5.99,2.36-7.86c1.57-1.86,3.77-2.79,6.61-2.79,1.44,0,2.76,.23,3.93,.7,1.17,.47,2.33,1.24,3.5,2.3l.92-1.7c-1.05-1.08-2.29-1.88-3.71-2.41-1.42-.54-2.97-.8-4.68-.8-2.28,0-4.26,.5-5.94,1.5-1.67,1.01-2.96,2.45-3.88,4.35-.9,1.9-1.36,4.14-1.36,6.73s.46,4.82,1.36,6.71c.91,1.9,2.21,3.35,3.88,4.37,1.68,1.01,3.66,1.51,5.94,1.51,1.7,0,3.26-.26,4.68-.8,1.42-.54,2.65-1.34,3.71-2.4l-.92-1.72c-1.17,1.08-2.33,1.84-3.5,2.31Z"></path><path class="cls-1" d="M398.41,171.37h-1.96l-2.86,6.6-7.82,18.02h2.2l2.84-6.57h13.26l2.84,6.57h2.2l-10.68-24.62Zm-6.81,16.16l3.18-7.45,2.64-6.17,5.83,13.61h-11.66Z"></path><path class="cls-1" d="M455.64,193.66c-1.18,.46-2.48,.7-3.92,.7-2.87,0-5.08-.94-6.63-2.8-1.57-1.85-2.35-4.48-2.35-7.88v-.16c.02-3.29,.81-5.87,2.36-7.7,1.58-1.86,3.77-2.79,6.62-2.79,1.44,0,2.75,.23,3.92,.7,.78,.31,1.56,.75,2.32,1.32,.4,.3,.79,.62,1.19,.98l.9-1.7c-.09-.09-.19-.19-.29-.29-.98-.93-2.12-1.64-3.41-2.13-1.43-.54-2.99-.8-4.68-.8-2.29,0-4.27,.5-5.94,1.5-1.68,1.01-2.97,2.45-3.88,4.35-.9,1.9-1.36,4.14-1.36,6.73,0,.37,.01,.72,.03,1.06,.1,2.14,.55,4.02,1.33,5.65,.9,1.9,2.2,3.35,3.88,4.37,1.67,1.01,3.65,1.51,5.94,1.51,1.69,0,3.25-.26,4.68-.8,1.42-.54,2.64-1.34,3.69-2.4l-.9-1.72c-1.17,1.08-2.33,1.84-3.51,2.31Z"></path><path class="cls-1" d="M494.95,171.37v24.62h2.16v-24.62h-2.16Z"></path><path class="cls-1" d="M613.31,172.28v20.94l-14.99-20.16-.58-.79h-1.7v24.61h2.02v-20.98l15.6,20.98h1.68v-24.61h-2.04Z"></path><path class="cls-1" d="M668.78,173.23v-1.85h-15.18v24.62h15.18v-1.85h-13.05v-9.7h12.35v-1.89h-12.35v-9.32h13.05Z"></path><path class="cls-1" d="M717.16,187.02c-.75-.82-1.68-1.44-2.77-1.83-1.1-.4-2.59-.82-4.47-1.29l-.9-.21c-1.96-.47-3.44-1.03-4.45-1.69-1.02-.66-1.52-1.68-1.52-3.05,0-1.59,.58-2.83,1.75-3.71,1.16-.88,2.78-1.33,4.85-1.33,1.44,0,2.76,.24,3.95,.72,1.18,.47,2.36,1.24,3.52,2.29l.9-1.72c-1.04-1.05-2.29-1.84-3.72-2.39-1.43-.55-2.99-.82-4.66-.82-1.77,0-3.32,.3-4.63,.87-1.32,.58-2.33,1.41-3.05,2.45-.72,1.05-1.08,2.26-1.08,3.67,0,1.51,.4,2.71,1.22,3.6,.81,.9,1.81,1.57,2.97,2.01,1.18,.45,2.72,.87,4.63,1.29,1.44,.32,2.6,.64,3.45,.96,.86,.31,1.57,.76,2.13,1.33,.56,.57,.84,1.3,.84,2.22,0,1.53-.57,2.72-1.73,3.57-1.14,.86-2.76,1.28-4.83,1.28-1.75,0-3.25-.23-4.5-.69-1.24-.45-2.48-1.22-3.72-2.32l-.9,1.72c.96,.9,2.02,1.6,3.2,2.12,.25,.11,.51,.22,.78,.31,1.49,.53,3.2,.79,5.14,.79,1.57,0,2.97-.23,4.2-.7,.14-.06,.26-.1,.39-.16,1.32-.57,2.33-1.37,3.05-2.39,.72-1.03,1.09-2.21,1.09-3.56s-.38-2.52-1.14-3.34Z"></path></g></g></svg> 